<svg xmlns="http://www.w3.org/2000/svg" viewBox="0 0 512.003 512.003">
  <circle fill="#FDDF6D" cx="256.001" cy="256.001" r="256.001"/>
  <path fill="#FCC56B" d="M310.859 474.208c-141.385 0-256-114.615-256-256 0-75.537 32.722-143.422 84.757-190.281C56.738 70.303 0 156.525 0 256c0 141.385 114.615 256 256 256 65.849 0 125.883-24.87 171.243-65.718-34.918 17.853-74.473 27.926-116.384 27.926z"/>
  <g fill="#7F184C">
    <circle cx="317.766" cy="365.603" r="48.809"/>
    <path d="M444.125 276.273c-38.672 0-83.563-26.436-92.515-72.017-3.991-20.317-.514-42.848 9.538-61.82 11.113-20.973 28.787-34.988 49.766-39.461 21.858-4.662 46.369 1.136 65.565 15.504 16.584 12.411 26.471 29.205 27.843 47.286 1.344 17.737-5.85 37.091-19.247 51.77-12.171 13.336-28.008 21.125-43.452 21.366-17.434.219-35.02-8.558-45.992-23.041-3.628-4.792-15.126-22.084-10.749-43.463.854-4.173 3.122-15.259 13.082-24.034 10.145-8.934 21.945-9.923 26.65-9.923h.096c22.934.071 40.105 17.519 41.756 33.771.19 1.862 1.473 18.447-11.628 27.125-7.454 4.939-19.131 6.854-28.413 0-7.304-5.396-10.934-14.919-9.248-24.262 1.022-5.661 6.438-9.416 12.099-8.4 5.66 1.022 9.42 6.439 8.398 12.099-.283 1.57.168 3.101 1.125 3.806 1.1.815 3.38.157 4.535-.608 2.406-1.594 2.509-6.481 2.405-7.701-.75-7.378-11.396-14.972-21.091-15.002h-.04c-1.815 0-7.914.353-12.876 4.724-4.72 4.157-5.842 9.634-6.443 12.578-2.69 13.14 5.316 24.557 6.947 26.712 6.932 9.151 18.317 14.939 29.062 14.789 9.726-.151 20.075-5.467 28.391-14.58 9.599-10.519 14.783-24.035 13.864-36.153-.91-11.999-7.854-23.428-19.554-32.186-14.24-10.657-32.918-15.183-48.742-11.809-14.847 3.165-27.528 13.408-35.704 28.843-7.74 14.609-10.545 32.572-7.504 48.054 3.235 16.474 13.411 31.224 28.651 41.536 14.243 9.634 31.524 14.559 47.408 13.539 5.746-.371 10.695 3.978 11.067 9.719.372 5.739-3.978 10.694-9.719 11.067-1.787.115-3.57.171-5.36.171z"/>
    <path d="M251.483 276.273c-38.672 0-83.564-26.436-92.515-72.017-3.989-20.317-.514-42.848 9.538-61.82 11.113-20.975 28.787-34.988 49.767-39.461 21.858-4.662 46.369 1.136 65.565 15.504 16.583 12.413 26.471 29.205 27.841 47.286 1.346 17.737-5.85 37.089-19.246 51.768-12.172 13.337-28.009 21.126-43.452 21.368-17.376.253-35.02-8.558-45.992-23.041-3.628-4.789-15.126-22.077-10.749-43.463.854-4.176 3.124-15.262 13.082-24.034 10.146-8.934 21.945-9.923 26.65-9.923h.096c22.934.071 40.105 17.519 41.756 33.771.19 1.862 1.473 18.446-11.627 27.125-7.455 4.941-19.133 6.855-28.415 0-7.304-5.396-10.935-14.918-9.248-24.262 1.022-5.661 6.439-9.416 12.099-8.4 5.66 1.022 9.42 6.439 8.398 12.099-.283 1.57.168 3.099 1.125 3.806 1.101.812 3.381.156 4.537-.608 2.406-1.594 2.508-6.481 2.404-7.701-.75-7.378-11.396-14.972-21.091-15.002-1.755.049-7.916.318-12.917 4.724-4.718 4.156-5.84 9.634-6.443 12.579-2.69 13.143 5.316 24.556 6.947 26.708 6.932 9.154 18.304 14.941 29.062 14.791 9.726-.151 20.075-5.467 28.393-14.582 9.599-10.517 14.782-24.034 13.862-36.152-.91-11.999-7.854-23.428-19.553-32.186-14.24-10.657-32.918-15.183-48.742-11.809-14.847 3.165-27.528 13.408-35.704 28.843-7.74 14.609-10.545 32.572-7.505 48.054 3.235 16.474 13.411 31.224 28.651 41.536 14.243 9.634 31.528 14.571 47.408 13.539 5.743-.371 10.694 3.978 11.067 9.719.372 5.739-3.978 10.694-9.719 11.067-1.786.115-3.569.171-5.359.171z"/>
  </g>
  <ellipse transform="matrix(.2723 -.9622 .9622 .2723 151.7603 349.5912)" fill="#FCEB88" cx="307.007" cy="74.462" rx="29.854" ry="53.46"/>
</svg>
